<svg id="visual" viewBox="0 0 900 600" width="900" height="600" xmlns="http://www.w3.org/2000/svg" xmlns:xlink="http://www.w3.org/1999/xlink" version="1.1"><rect x="0" y="0" width="900" height="600" fill="#FFFFFF"></rect><path d="M0 541L37.5 547.2C75 553.3 150 565.7 225 556.3C300 547 375 516 450 444.5C525 373 600 261 675 220.2C750 179.3 825 209.7 862.5 224.8L900 240L900 0L862.5 0C825 0 750 0 675 0C600 0 525 0 450 0C375 0 300 0 225 0C150 0 75 0 37.5 0L0 0Z" fill="#49c2f2" stroke-linecap="round" stroke-linejoin="miter"></path></svg>
