<?xml version="1.0" encoding="UTF-8" standalone="no"?>
<!DOCTYPE svg PUBLIC "-//W3C//DTD SVG 1.1//EN" "http://www.w3.org/Graphics/SVG/1.1/DTD/svg11.dtd">
<svg xmlns="http://www.w3.org/2000/svg" version="1.1" viewBox="0.00 0.00 317.00 308.00">
<g fill="#ffffff00">
<path d="
  M 0.00 0.00
  L 317.00 0.00
  L 317.00 308.00
  L 0.00 308.00
  L 0.00 0.00
  Z
  M 183.17 74.61
  C 182.51 59.92 180.90 48.82 167.52 40.98
  Q 164.82 39.40 162.40 37.44
  Q 151.48 28.58 136.87 31.00
  Q 136.40 31.07 135.98 30.87
  Q 122.12 24.27 108.22 30.82
  Q 107.73 31.05 107.20 30.97
  Q 92.58 28.69 81.65 37.49
  Q 79.10 39.55 76.29 41.23
  Q 64.75 48.14 62.02 61.44
  C 61.22 65.34 61.23 70.45 60.95 74.93
  A 0.83 0.81 81.4 0 1 60.45 75.63
  C 52.40 78.92 52.30 92.21 59.05 96.24
  A 0.91 0.89 -75.0 0 1 59.49 97.02
  C 59.52 102.89 60.39 110.70 58.62 116.24
  C 55.22 126.89 62.44 136.90 73.30 138.49
  Q 73.92 138.58 73.92 139.20
  Q 74.03 165.57 94.13 181.99
  A 1.01 1.00 -70.7 0 1 94.50 182.77
  L 94.50 196.75
  Q 94.50 197.27 94.02 197.47
  C 88.47 199.77 43.42 215.56 48.41 223.79
  C 50.32 226.94 53.01 225.59 55.39 223.74
  C 65.08 216.22 78.01 212.00 89.31 207.61
  A 0.55 0.54 -21.5 0 1 90.01 207.91
  Q 104.15 243.24 118.12 278.17
  C 120.10 283.14 124.07 284.54 126.39 278.74
  Q 140.64 243.18 154.60 208.25
  A 1.18 1.18 0.0 0 1 156.87 208.85
  C 152.72 239.93 170.39 269.86 200.55 279.38
  C 226.35 287.52 253.94 278.91 270.47 257.64
  C 293.77 227.66 285.95 185.01 254.02 164.48
  C 249.13 161.33 245.20 167.35 250.89 171.27
  C 295.19 201.78 278.38 270.27 224.31 274.77
  C 196.87 277.05 171.48 258.22 165.25 231.57
  C 155.53 190.00 193.29 153.27 234.96 164.10
  C 241.36 165.76 242.98 158.30 236.25 156.74
  C 201.85 148.73 170.25 166.46 158.75 200.15
  Q 158.57 200.70 158.03 200.48
  L 150.75 197.48
  Q 150.25 197.28 150.25 196.74
  L 150.25 182.28
  Q 150.25 181.74 150.66 181.39
  Q 170.16 164.91 170.21 139.14
  Q 170.21 138.59 170.76 138.51
  C 181.68 137.05 188.82 126.92 185.57 116.28
  C 183.90 110.82 184.76 103.43 184.75 97.66
  Q 184.75 97.15 185.23 96.97
  C 194.55 93.59 194.10 77.06 183.70 75.21
  Q 183.19 75.12 183.17 74.61
  Z
  M 259.78 222.08
  C 274.95 200.25 252.18 173.94 228.38 183.31
  C 225.11 184.60 221.34 188.63 217.76 186.17
  C 196.84 171.81 169.08 191.94 177.73 215.77
  C 180.23 222.66 187.19 230.86 192.13 237.59
  Q 192.42 237.99 192.47 238.48
  Q 193.25 246.15 194.16 253.82
  C 195.28 263.29 206.96 267.13 212.45 258.94
  C 215.22 254.80 215.86 237.73 218.99 236.49
  C 222.43 235.13 223.53 237.92 224.03 240.78
  C 224.89 245.68 225.80 255.91 228.90 259.66
  C 234.66 266.64 245.78 263.05 246.72 254.23
  Q 247.54 246.48 248.34 238.68
  Q 248.39 238.18 248.68 237.77
  Q 254.30 229.97 259.78 222.08
  Z
  M 44.27 235.65
  C 46.52 231.38 40.58 227.91 37.47 232.80
  C 28.59 246.79 27.32 261.04 28.06 277.63
  C 28.34 283.96 35.31 283.52 35.40 278.72
  C 35.63 266.01 34.66 255.63 40.53 243.16
  Q 42.31 239.36 44.27 235.65
  Z
  M 94.48 256.29
  A 6.29 6.29 0.0 0 0 88.19 250.00
  L 57.27 250.00
  A 6.29 6.29 0.0 0 0 50.98 256.29
  L 50.98 267.71
  A 6.29 6.29 0.0 0 0 57.27 274.00
  L 88.19 274.00
  A 6.29 6.29 0.0 0 0 94.48 267.71
  L 94.48 256.29
  Z"
/>
<path d="
  M 86.03 43.75
  C 93.01 37.63 99.76 37.62 108.84 38.57
  A 1.70 1.68 33.6 0 0 109.80 38.38
  C 117.13 34.34 123.81 34.16 131.49 37.23
  Q 135.23 38.72 139.28 38.39
  C 146.99 37.75 152.69 38.74 158.57 44.02
  Q 160.38 45.65 162.47 46.73
  C 174.31 52.85 175.07 62.27 175.64 74.57
  Q 175.66 75.00 175.23 75.00
  L 170.00 75.00
  A 0.79 0.78 -12.4 0 1 169.29 74.55
  C 157.65 49.58 125.66 50.51 113.58 74.83
  A 0.54 0.52 -74.4 0 1 113.08 75.12
  Q 102.70 74.76 92.25 75.23
  C 88.29 75.41 87.83 82.52 93.81 82.60
  Q 102.36 82.73 110.91 82.41
  Q 111.50 82.39 111.50 82.98
  L 111.50 89.39
  Q 111.50 89.78 111.11 89.78
  L 64.06 89.86
  A 2.06 2.05 0.0 0 1 62.00 87.81
  L 62.00 83.97
  A 1.25 1.25 0.0 0 1 63.27 82.72
  Q 69.73 82.87 76.47 82.54
  C 80.21 82.36 82.52 78.40 79.29 75.93
  C 77.35 74.44 71.42 74.95 68.99 75.03
  A 0.52 0.51 1.5 0 1 68.46 74.48
  C 69.28 61.98 69.73 52.76 81.95 46.52
  Q 84.14 45.41 86.03 43.75
  Z"
/>
<path d="
  M 164.04 86.27
  A 22.52 22.52 0.0 0 1 141.52 108.79
  A 22.52 22.52 0.0 0 1 119.00 86.27
  A 22.52 22.52 0.0 0 1 141.52 63.75
  A 22.52 22.52 0.0 0 1 164.04 86.27
  Z
  M 156.58 86.25
  A 15.03 15.03 0.0 0 0 141.55 71.22
  A 15.03 15.03 0.0 0 0 126.52 86.25
  A 15.03 15.03 0.0 0 0 141.55 101.28
  A 15.03 15.03 0.0 0 0 156.58 86.25
  Z"
/>
<circle cx="141.53" cy="86.26" r="7.52"/>
<rect x="-6.18" y="-3.64" transform="translate(177.75,86.33) rotate(0.5)" width="12.36" height="7.28" rx="0.27"/>
<path d="
  M 73.63 103.95
  L 67.40 105.79
  A 0.31 0.31 0.0 0 1 67.00 105.50
  L 67.00 97.81
  A 0.31 0.31 0.0 0 1 67.31 97.50
  L 73.68 97.50
  A 0.31 0.31 0.0 0 1 73.99 97.82
  L 73.86 103.66
  A 0.31 0.31 0.0 0 1 73.63 103.95
  Z"
/>
<path d="
  M 113.75 97.86
  C 122.67 117.21 146.36 122.62 162.26 108.00
  A 0.29 0.29 0.0 0 1 162.75 108.21
  Q 162.77 123.91 162.66 139.76
  Q 162.51 160.62 147.10 174.32
  C 122.20 196.46 89.82 179.82 82.76 150.76
  Q 81.46 145.42 81.48 136.13
  Q 81.51 117.07 81.50 98.01
  Q 81.50 97.50 82.01 97.50
  L 113.19 97.50
  Q 113.59 97.50 113.75 97.86
  Z"
/>
<path d="
  M 170.25 103.66
  L 170.25 97.84
  A 0.34 0.34 0.0 0 1 170.59 97.50
  L 176.91 97.50
  A 0.34 0.34 0.0 0 1 177.25 97.84
  L 177.25 105.43
  A 0.34 0.34 0.0 0 1 176.82 105.76
  L 170.50 103.99
  A 0.34 0.34 0.0 0 1 170.25 103.66
  Z"
/>
<path d="
  M 73.32 130.93
  C 62.58 128.81 62.83 114.59 73.30 111.84
  Q 73.76 111.72 73.76 112.19
  L 73.77 130.56
  Q 73.77 131.02 73.32 130.93
  Z"
/>
<path d="
  M 170.25 112.07
  A 0.11 0.11 0.0 0 1 170.36 111.96
  L 170.38 111.96
  A 9.26 8.27 -90.0 0 1 178.65 121.22
  L 178.65 121.54
  A 9.26 8.27 -90.0 0 1 170.38 130.80
  L 170.36 130.80
  A 0.11 0.11 0.0 0 1 170.25 130.69
  L 170.25 112.07
  Z"
/>
<path d="
  M 102.62 187.38
  C 115.48 194.04 129.41 193.89 142.10 186.87
  Q 142.75 186.51 142.75 187.25
  L 142.75 198.31
  Q 142.75 198.93 142.28 199.35
  Q 135.55 205.27 128.67 210.97
  C 124.94 214.06 120.57 215.18 116.84 211.92
  Q 109.61 205.62 102.38 199.35
  A 1.10 1.10 0.0 0 1 102.00 198.52
  L 102.00 187.76
  Q 102.00 187.05 102.62 187.38
  Z"
/>
<path d="
  M 230.29 190.72
  C 244.86 183.07 261.05 197.95 256.20 212.63
  C 254.06 219.12 247.01 227.06 242.47 233.53
  C 239.85 237.27 239.73 248.81 239.23 253.62
  A 2.40 2.39 -6.3 0 1 237.61 255.64
  C 235.74 256.26 234.46 255.15 234.08 253.29
  C 232.94 247.62 232.12 237.67 229.20 233.34
  C 223.96 225.52 211.43 228.27 209.78 237.50
  Q 208.36 245.50 206.76 253.45
  C 206.38 255.32 205.43 255.99 203.57 255.74
  A 2.23 2.22 0.3 0 1 201.66 253.81
  Q 200.70 245.88 199.94 237.55
  Q 199.75 235.51 198.59 233.87
  C 194.05 227.41 186.40 218.86 184.49 212.07
  C 182.00 203.21 186.42 194.28 194.70 190.53
  Q 204.16 186.26 214.69 193.09
  C 220.09 196.59 225.21 193.39 230.29 190.72
  Z
  M 233.52 206.29
  C 233.87 203.68 232.08 201.90 229.59 201.77
  Q 229.03 201.74 228.54 202.02
  Q 220.38 206.63 212.26 201.99
  A 1.78 1.74 58.1 0 0 211.32 201.76
  C 206.96 201.95 205.72 206.87 209.66 208.99
  Q 218.95 214.01 228.84 210.10
  C 230.88 209.30 233.25 208.26 233.52 206.29
  Z"
/>
<path d="
  M 112.60 218.15
  C 124.98 228.66 138.90 212.22 147.28 204.90
  A 0.28 0.28 0.0 0 1 147.73 205.22
  L 122.57 268.10
  A 0.23 0.23 0.0 0 1 122.14 268.11
  L 96.95 205.05
  A 0.23 0.22 10.2 0 1 97.31 204.80
  Q 104.81 211.54 112.60 218.15
  Z"
/>
<rect x="58.51" y="257.49" width="28.48" height="9.02" rx="0.27"/>
</g>
<g fill="#000000">
<path d="
  M 183.70 75.21
  C 194.10 77.06 194.55 93.59 185.23 96.97
  Q 184.75 97.15 184.75 97.66
  C 184.76 103.43 183.90 110.82 185.57 116.28
  C 188.82 126.92 181.68 137.05 170.76 138.51
  Q 170.21 138.59 170.21 139.14
  Q 170.16 164.91 150.66 181.39
  Q 150.25 181.74 150.25 182.28
  L 150.25 196.74
  Q 150.25 197.28 150.75 197.48
  L 158.03 200.48
  Q 158.57 200.70 158.75 200.15
  C 170.25 166.46 201.85 148.73 236.25 156.74
  C 242.98 158.30 241.36 165.76 234.96 164.10
  C 193.29 153.27 155.53 190.00 165.25 231.57
  C 171.48 258.22 196.87 277.05 224.31 274.77
  C 278.38 270.27 295.19 201.78 250.89 171.27
  C 245.20 167.35 249.13 161.33 254.02 164.48
  C 285.95 185.01 293.77 227.66 270.47 257.64
  C 253.94 278.91 226.35 287.52 200.55 279.38
  C 170.39 269.86 152.72 239.93 156.87 208.85
  A 1.18 1.18 0.0 0 0 154.60 208.25
  Q 140.64 243.18 126.39 278.74
  C 124.07 284.54 120.10 283.14 118.12 278.17
  Q 104.15 243.24 90.01 207.91
  A 0.55 0.54 -21.5 0 0 89.31 207.61
  C 78.01 212.00 65.08 216.22 55.39 223.74
  C 53.01 225.59 50.32 226.94 48.41 223.79
  C 43.42 215.56 88.47 199.77 94.02 197.47
  Q 94.50 197.27 94.50 196.75
  L 94.50 182.77
  A 1.01 1.00 -70.7 0 0 94.13 181.99
  Q 74.03 165.57 73.92 139.20
  Q 73.92 138.58 73.30 138.49
  C 62.44 136.90 55.22 126.89 58.62 116.24
  C 60.39 110.70 59.52 102.89 59.49 97.02
  A 0.91 0.89 -75.0 0 0 59.05 96.24
  C 52.30 92.21 52.40 78.92 60.45 75.63
  A 0.83 0.81 81.4 0 0 60.95 74.93
  C 61.23 70.45 61.22 65.34 62.02 61.44
  Q 64.75 48.14 76.29 41.23
  Q 79.10 39.55 81.65 37.49
  Q 92.58 28.69 107.20 30.97
  Q 107.73 31.05 108.22 30.82
  Q 122.12 24.27 135.98 30.87
  Q 136.40 31.07 136.87 31.00
  Q 151.48 28.58 162.40 37.44
  Q 164.82 39.40 167.52 40.98
  C 180.90 48.82 182.51 59.92 183.17 74.61
  Q 183.19 75.12 183.70 75.21
  Z
  M 108.84 38.57
  C 99.76 37.62 93.01 37.63 86.03 43.75
  Q 84.14 45.41 81.95 46.52
  C 69.73 52.76 69.28 61.98 68.46 74.48
  A 0.52 0.51 1.5 0 0 68.99 75.03
  C 71.42 74.95 77.35 74.44 79.29 75.93
  C 82.52 78.40 80.21 82.36 76.47 82.54
  Q 69.73 82.87 63.27 82.72
  A 1.25 1.25 0.0 0 0 62.00 83.97
  L 62.00 87.81
  A 2.06 2.05 0.0 0 0 64.06 89.86
  L 111.11 89.78
  Q 111.50 89.78 111.50 89.39
  L 111.50 82.98
  Q 111.50 82.39 110.91 82.41
  Q 102.36 82.73 93.81 82.60
  C 87.83 82.52 88.29 75.41 92.25 75.23
  Q 102.70 74.76 113.08 75.12
  A 0.54 0.52 -74.4 0 0 113.58 74.83
  C 125.66 50.51 157.65 49.58 169.29 74.55
  A 0.79 0.78 -12.4 0 0 170.00 75.00
  L 175.23 75.00
  Q 175.66 75.00 175.64 74.57
  C 175.07 62.27 174.31 52.85 162.47 46.73
  Q 160.38 45.65 158.57 44.02
  C 152.69 38.74 146.99 37.75 139.28 38.39
  Q 135.23 38.72 131.49 37.23
  C 123.81 34.16 117.13 34.34 109.80 38.38
  A 1.70 1.68 33.6 0 1 108.84 38.57
  Z
  M 164.04 86.27
  A 22.52 22.52 0.0 0 0 141.52 63.75
  A 22.52 22.52 0.0 0 0 119.00 86.27
  A 22.52 22.52 0.0 0 0 141.52 108.79
  A 22.52 22.52 0.0 0 0 164.04 86.27
  Z
  M 183.9592 83.0141
  A 0.27 0.27 0.0 0 0 183.6915 82.7417
  L 171.8720 82.6386
  A 0.27 0.27 0.0 0 0 171.5996 82.9062
  L 171.5408 89.6459
  A 0.27 0.27 0.0 0 0 171.8085 89.9183
  L 183.6280 90.0214
  A 0.27 0.27 0.0 0 0 183.9004 89.7538
  L 183.9592 83.0141
  Z
  M 73.63 103.95
  A 0.31 0.31 0.0 0 0 73.86 103.66
  L 73.99 97.82
  A 0.31 0.31 0.0 0 0 73.68 97.50
  L 67.31 97.50
  A 0.31 0.31 0.0 0 0 67.00 97.81
  L 67.00 105.50
  A 0.31 0.31 0.0 0 0 67.40 105.79
  L 73.63 103.95
  Z
  M 162.26 108.00
  C 146.36 122.62 122.67 117.21 113.75 97.86
  Q 113.59 97.50 113.19 97.50
  L 82.01 97.50
  Q 81.50 97.50 81.50 98.01
  Q 81.51 117.07 81.48 136.13
  Q 81.46 145.42 82.76 150.76
  C 89.82 179.82 122.20 196.46 147.10 174.32
  Q 162.51 160.62 162.66 139.76
  Q 162.77 123.91 162.75 108.21
  A 0.29 0.29 0.0 0 0 162.26 108.00
  Z
  M 170.25 103.66
  A 0.34 0.34 0.0 0 0 170.50 103.99
  L 176.82 105.76
  A 0.34 0.34 0.0 0 0 177.25 105.43
  L 177.25 97.84
  A 0.34 0.34 0.0 0 0 176.91 97.50
  L 170.59 97.50
  A 0.34 0.34 0.0 0 0 170.25 97.84
  L 170.25 103.66
  Z
  M 73.30 111.84
  C 62.83 114.59 62.58 128.81 73.32 130.93
  Q 73.77 131.02 73.77 130.56
  L 73.76 112.19
  Q 73.76 111.72 73.30 111.84
  Z
  M 170.25 112.07
  L 170.25 130.69
  A 0.11 0.11 0.0 0 0 170.36 130.80
  L 170.38 130.80
  A 9.26 8.27 90.0 0 0 178.65 121.54
  L 178.65 121.22
  A 9.26 8.27 -90.0 0 0 170.38 111.96
  L 170.36 111.96
  A 0.11 0.11 0.0 0 0 170.25 112.07
  Z
  M 142.10 186.87
  C 129.41 193.89 115.48 194.04 102.62 187.38
  Q 102.00 187.05 102.00 187.76
  L 102.00 198.52
  A 1.10 1.10 0.0 0 0 102.38 199.35
  Q 109.61 205.62 116.84 211.92
  C 120.57 215.18 124.94 214.06 128.67 210.97
  Q 135.55 205.27 142.28 199.35
  Q 142.75 198.93 142.75 198.31
  L 142.75 187.25
  Q 142.75 186.51 142.10 186.87
  Z
  M 147.28 204.90
  C 138.90 212.22 124.98 228.66 112.60 218.15
  Q 104.81 211.54 97.31 204.80
  A 0.23 0.22 10.2 0 0 96.95 205.05
  L 122.14 268.11
  A 0.23 0.23 0.0 0 0 122.57 268.10
  L 147.73 205.22
  A 0.28 0.28 0.0 0 0 147.28 204.90
  Z"
/>
<path d="
  M 156.58 86.25
  A 15.03 15.03 0.0 0 1 141.55 101.28
  A 15.03 15.03 0.0 0 1 126.52 86.25
  A 15.03 15.03 0.0 0 1 141.55 71.22
  A 15.03 15.03 0.0 0 1 156.58 86.25
  Z
  M 149.05 86.26
  A 7.52 7.52 0.0 0 0 141.53 78.74
  A 7.52 7.52 0.0 0 0 134.01 86.26
  A 7.52 7.52 0.0 0 0 141.53 93.78
  A 7.52 7.52 0.0 0 0 149.05 86.26
  Z"
/>
<path d="
  M 228.38 183.31
  C 252.18 173.94 274.95 200.25 259.78 222.08
  Q 254.30 229.97 248.68 237.77
  Q 248.39 238.18 248.34 238.68
  Q 247.54 246.48 246.72 254.23
  C 245.78 263.05 234.66 266.64 228.90 259.66
  C 225.80 255.91 224.89 245.68 224.03 240.78
  C 223.53 237.92 222.43 235.13 218.99 236.49
  C 215.86 237.73 215.22 254.80 212.45 258.94
  C 206.96 267.13 195.28 263.29 194.16 253.82
  Q 193.25 246.15 192.47 238.48
  Q 192.42 237.99 192.13 237.59
  C 187.19 230.86 180.23 222.66 177.73 215.77
  C 169.08 191.94 196.84 171.81 217.76 186.17
  C 221.34 188.63 225.11 184.60 228.38 183.31
  Z
  M 256.20 212.63
  C 261.05 197.95 244.86 183.07 230.29 190.72
  C 225.21 193.39 220.09 196.59 214.69 193.09
  Q 204.16 186.26 194.70 190.53
  C 186.42 194.28 182.00 203.21 184.49 212.07
  C 186.40 218.86 194.05 227.41 198.59 233.87
  Q 199.75 235.51 199.94 237.55
  Q 200.70 245.88 201.66 253.81
  A 2.23 2.22 0.3 0 0 203.57 255.74
  C 205.43 255.99 206.38 255.32 206.76 253.45
  Q 208.36 245.50 209.78 237.50
  C 211.43 228.27 223.96 225.52 229.20 233.34
  C 232.12 237.67 232.94 247.62 234.08 253.29
  C 234.46 255.15 235.74 256.26 237.61 255.64
  A 2.40 2.39 -6.3 0 0 239.23 253.62
  C 239.73 248.81 239.85 237.27 242.47 233.53
  C 247.01 227.06 254.06 219.12 256.20 212.63
  Z"
/>
<path d="
  M 229.59 201.77
  C 232.08 201.90 233.87 203.68 233.52 206.29
  C 233.25 208.26 230.88 209.30 228.84 210.10
  Q 218.95 214.01 209.66 208.99
  C 205.72 206.87 206.96 201.95 211.32 201.76
  A 1.78 1.74 58.1 0 1 212.26 201.99
  Q 220.38 206.63 228.54 202.02
  Q 229.03 201.74 229.59 201.77
  Z"
/>
<path d="
  M 37.47 232.80
  C 40.58 227.91 46.52 231.38 44.27 235.65
  Q 42.31 239.36 40.53 243.16
  C 34.66 255.63 35.63 266.01 35.40 278.72
  C 35.31 283.52 28.34 283.96 28.06 277.63
  C 27.32 261.04 28.59 246.79 37.47 232.80
  Z"
/>
<path d="
  M 94.48 267.71
  A 6.29 6.29 0.0 0 1 88.19 274.00
  L 57.27 274.00
  A 6.29 6.29 0.0 0 1 50.98 267.71
  L 50.98 256.29
  A 6.29 6.29 0.0 0 1 57.27 250.00
  L 88.19 250.00
  A 6.29 6.29 0.0 0 1 94.48 256.29
  L 94.48 267.71
  Z
  M 86.99 257.76
  A 0.27 0.27 0.0 0 0 86.72 257.49
  L 58.78 257.49
  A 0.27 0.27 0.0 0 0 58.51 257.76
  L 58.51 266.24
  A 0.27 0.27 0.0 0 0 58.78 266.51
  L 86.72 266.51
  A 0.27 0.27 0.0 0 0 86.99 266.24
  L 86.99 257.76
  Z"
/>
</g>
</svg>
